<?xml version="1.0" encoding="UTF-8" standalone="no"?>
<!-- Uploaded to: SVG Repo, www.svgrepo.com, Generator: SVG Repo Mixer Tools -->
<svg width="800px" height="800px" viewBox="0 0 64 64" version="1.1" xmlns="http://www.w3.org/2000/svg" xmlns:xlink="http://www.w3.org/1999/xlink">
    
    <title>cha-cloud</title>
    <desc>Created with Sketch.</desc>
    <defs>

</defs>
    <g id="General" stroke="none" stroke-width="1" fill="none" fill-rule="evenodd">
        <g id="SLICES-64px" transform="translate(-90.000000, -100.000000)">

</g>
        <g id="ICONS" transform="translate(-85.000000, -95.000000)">
            <g id="cha-cloud" transform="translate(90.000000, 104.000000)">
                <path d="M47.4951,16.8018 C47.8211,15.9298 48.0001,14.9858 48.0001,13.9998 C48.0001,9.5818 44.4181,5.9998 40.0001,5.9998 C38.4661,5.9998 37.0321,6.4318 35.8151,7.1808 L35.8161,7.1828 C34.9761,3.0838 31.3491,-0.0002 27.0001,-0.0002 C22.6501,-0.0002 19.0221,3.0848 18.1831,7.1858 L18.1891,7.1838 C16.9711,6.4328 15.5361,5.9998 14.0001,5.9998 C9.5821,5.9998 6.0001,9.5818 6.0001,13.9998 C6.0001,14.0838 6.0011,14.1678 6.0041,14.2518 C2.5431,15.1328 0.0001,18.2648 0.0001,21.9998 C0.0001,26.4188 3.5821,29.9998 8.0001,29.9998 C8.0001,34.4188 11.5821,37.9998 16.0001,37.9998 L16.0001,47.9998 L28.2151,37.5258 C29.6721,39.0508 31.7251,39.9998 34.0001,39.9998 C38.4181,39.9998 42.0001,36.4188 42.0001,31.9998 L42.0011,31.7478 C42.6401,31.9128 43.3091,31.9998 44.0001,31.9998 C48.4181,31.9998 52.0001,28.4188 52.0001,23.9998 C52.0001,20.8348 50.1621,18.0998 47.4951,16.8018" id="Fill-494" fill="#FFFFFF">

</path>
                <path d="M47.4961,16.8018 C47.8221,15.9298 48.0001,14.9858 48.0001,13.9998 C48.0001,9.5818 44.4181,5.9998 40.0001,5.9998 C39.5801,5.9998 39.1701,6.0388 38.7671,6.1008 C40.9691,7.2878 42.4621,9.5958 42.4621,12.2498 C42.4621,13.1128 42.3041,13.9388 42.0161,14.7018 C44.3741,15.8368 46.0001,18.2308 46.0001,20.9998 C46.0001,24.8658 42.8321,27.9998 38.9231,27.9998 C38.3121,27.9998 37.7201,27.9238 37.1541,27.7798 L37.1541,27.9998 C37.1541,31.8658 33.9851,34.9998 30.0771,34.9998 C28.0641,34.9998 26.2481,34.1688 24.9601,32.8348 C24.9601,32.8348 24.0001,35.9998 19.0001,35.9998 C15.0001,35.9998 14.1541,33.2498 14.1541,33.2498 C11.5151,33.2498 9.2171,31.8178 8.0001,29.6988 L8.0001,29.9998 C8.0001,34.4188 11.5821,37.9998 16.0001,37.9998 L16.0001,47.9998 L28.2151,37.5258 C29.6721,39.0508 31.7251,39.9998 34.0001,39.9998 C38.4181,39.9998 42.0001,36.4188 42.0001,31.9998 L42.0011,31.7478 C42.6401,31.9128 43.3091,31.9998 44.0001,31.9998 C48.4181,31.9998 52.0001,28.4188 52.0001,23.9998 C52.0001,20.8348 50.1621,18.0998 47.4961,16.8018" id="Fill-495" fill-opacity="0.25" fill="#6C6984">

</path>
                <path d="M47.4951,16.8018 C47.8211,15.9298 48.0001,14.9858 48.0001,13.9998 C48.0001,9.5818 44.4181,5.9998 40.0001,5.9998 C38.4661,5.9998 37.0321,6.4318 35.8151,7.1808 L35.8161,7.1828 C34.9761,3.0838 31.3491,-0.0002 27.0001,-0.0002 C22.6501,-0.0002 19.0221,3.0848 18.1831,7.1858 L18.1891,7.1838 C16.9711,6.4328 15.5361,5.9998 14.0001,5.9998 C9.5821,5.9998 6.0001,9.5818 6.0001,13.9998 C6.0001,14.0838 6.0011,14.1678 6.0041,14.2518 C2.5431,15.1328 0.0001,18.2648 0.0001,21.9998 C0.0001,26.4188 3.5821,29.9998 8.0001,29.9998 C8.0001,34.4188 11.5821,37.9998 16.0001,37.9998 L16.0001,47.9998 L28.2151,37.5258 C29.6721,39.0508 31.7251,39.9998 34.0001,39.9998 C38.4181,39.9998 42.0001,36.4188 42.0001,31.9998 L42.0011,31.7478 C42.6401,31.9128 43.3091,31.9998 44.0001,31.9998 C48.4181,31.9998 52.0001,28.4188 52.0001,23.9998 C52.0001,20.8348 50.1621,18.0998 47.4951,16.8018 Z" id="Stroke-497" stroke="#676883" stroke-width="2" stroke-linecap="round" stroke-linejoin="round">

</path>
            </g>
        </g>
    </g>
</svg>