<?xml version="1.0" encoding="iso-8859-1"?>
<!-- Uploaded to: SVG Repo, www.svgrepo.com, Generator: SVG Repo Mixer Tools -->
<svg version="1.1" id="Layer_1" xmlns="http://www.w3.org/2000/svg" xmlns:xlink="http://www.w3.org/1999/xlink" 
	 viewBox="0 0 512 512" xml:space="preserve">
<path style="fill:#6B6B6B;" d="M0,355.101L0.16,31.202C0.264,25.5,4.854,20.909,10.557,20.806l491.047,0.24
	c5.702,0.104,10.293,4.695,10.397,10.397l-0.16,323.891L0,355.101z"/>
<path d="M511.84,355.341v41.587c-0.104,5.702-4.695,10.293-10.397,10.397l-491.047-0.24C4.695,406.981,0.104,402.39,0,396.688
	v-41.587L511.84,355.341z"/>
<rect x="146.298" y="480.798" style="fill:#333333;" width="219.132" height="10.397"/>
<polygon style="fill:#6B6B6B;" points="328.641,480.822 183.087,480.742 193.516,407.173 318.277,407.237 "/>
<rect x="20.881" y="41.719" width="470.253" height="292.709"/>
<polygon style="fill:#333333;" points="318.277,407.237 193.516,407.173 187.693,448.24 320.14,420.457 "/>
<rect x="305.243" y="215.776" transform="matrix(0.7396 -0.6731 0.6731 0.7396 -86.7347 279.0523)" style="fill:#FFFFFF;" width="23.993" height="71.668"/>
<path style="fill:#E21B1B;" d="M252.673,112.329c31.622-0.384,57.582,24.896,58.038,56.518c-0.84,32.054-27.503,57.35-59.557,56.51
	c-30.87-0.808-55.703-25.64-56.51-56.51c0.464-31.614,26.424-56.878,58.038-56.494 M252.681,88.36
	c-44.45,0.84-79.807,37.556-78.967,82.006c0.84,44.45,37.556,79.807,82.006,78.967c43.858-0.832,78.983-36.621,78.983-80.487
	c-0.416-44.882-37.14-80.927-82.022-80.511h-0.008L252.681,88.36z"/>
</svg>